<?xml version="1.0" encoding="utf-8"?>
<!-- Generator: Adobe Illustrator 28.0.0, SVG Export Plug-In . SVG Version: 6.00 Build 0)  -->
<svg version="1.1" id="Слой_1" xmlns="http://www.w3.org/2000/svg" xmlns:xlink="http://www.w3.org/1999/xlink" x="0px" y="0px"
	 viewBox="0 0 1280 600" style="enable-background:new 0 0 1280 600;" xml:space="preserve">
<style type="text/css">
	.st0{fill:#1B314F;}
	.st1{fill:#FFFFFF;}
	.st2{fill:#94A6C3;}
	.st3{fill:#FFD923;}
	.st4{fill:#D82122;}
</style>
<g>
	<path class="st0" d="M545,206h40v160h40V166h-40C563,166,545,184,545,206z"/>
	<path class="st0" d="M665,246v120h40v-80C705,264,687,246,665,246z"/>
	<path class="st0" d="M825,246h-80v120h40v-80h40v40c0,22,18,40,40,40v-80C865,264,847,246,825,246z"/>
	<path class="st0" d="M1105,246h-40v-40c0-22-18-40-40-40v160h-80v-40h40v-40h-40c-22,0-40,18-40,40v40c0,22,18,40,40,40h120v-80h40
		v40c0,22,18,40,40,40v-80C1145,264,1127,246,1105,246z"/>
	<path class="st0" d="M665,166v40h40C705,184,687,166,665,166z"/>
</g>
<g>
	<path class="st1" d="M179.4,319.1l10.5-79.1l-91.2-63.3l83.3,28.2l19.7-30.2l71.9-44.6l158.5,87.3l8.2,133.2l-70.5,98.1l-55.8,8.5
		l28.9-52.8v-50.9l-21-39.7l-21.3-14.1l-32.8,33.8v35.8l-25.6,24l-32.5,3.9l-14.4,8.2l-23.6-7.5l-9.8-35.4l17.7-24.9v-18.5H179.4z"
		/>
	<path class="st2" d="M325.1,176.1c-17.4-3.6-36.4-2.6-36.4-2.6s-6.2,28.9-45,36.4C244.1,209.9,294.9,227.3,325.1,176.1z"/>
	<path class="st2" d="M340.9,437.9c21-16.4,36.8-39,44-64.6c0.3-1,3.3-2.6,5.2-3.9c3.3-2,6.6-3.6,7.2-6.2c1.3-7.5,2-15.4,2-23.3
		c0-3-3-5.9-5.9-8.9c-2.3-2-4.6-4.3-4.6-5.9c-3.3-29.9-17.1-57.8-39-78.1l-2.3,2.3c21.3,20,35.1,47.2,38.1,76.1
		c0.3,2.6,3,5.2,5.6,7.9c2.3,2,4.9,4.9,4.9,6.2c0,7.5-0.7,15.1-2,22.6c-0.3,1.3-3.3,2.6-5.6,3.9c-3.3,1.6-6.2,3.3-6.9,5.9
		c-7.9,27.9-25.9,52.2-49.9,67.9c4.3-9.2,17.7-39,24.9-54.1l-1.3-48.6l-41.7-40.4L290,300l-25.9,42c0,0,12.1,15.4-4.9,33.5
		c-16.7,17.7-29.9,21.7-29.9,21.7l-12.1-6.6c3.6-4.6,10.8-11.5,16.4-16.1c9.5-7.9,19-8.5,19-17.1c0.3-17.7-18.7-12.8-18.7-12.8
		l-6.9,6.6l-3,24.3l-14.4,18l-1.6-0.3l-23.6-5.2c0,0,14.4-7.5,16.7-16.1c2.3-8.2-4.6-35.4-4.9-37.1c0.3,0.3,6.9,5.9,9.8,15.1
		c5.2-14.4,12.1-28.2,14.1-29.5s28.5-15.4,28.5-15.4l-8.9,23.3l6.6-3.6L262,286c0,0,15.4-7.5,26.9-7.5c20.7-0.3,51.2-25.6,37.4-70.9
		c3.9,1.6,72.2,35.8,84,102.7C419.3,361.8,390.1,410,340.9,437.9z"/>
	<path class="st0" d="M262.8,183.3c7.5-8.9,4.6-22,4.6-22l-22,32.5C245.1,193.8,253.3,194.1,262.8,183.3z"/>
	<path class="st0" d="M189,360.8l2.6-13.1c0,0-10.8,19-11.8,21.7c-1,3,0.7,8.2,4.9,7.9c4.3-0.3,9.5-6.6,9.5-11.2
		C194.2,360.2,189,360.8,189,360.8z"/>
	<path class="st0" d="M383.9,152.1c0,0,16.4,0.7,33.5,2.6c-38.4-30.2-74.8-39-104.3-39c-40.7,0-68.2,16.7-69.9,17.7l12.8-20.3
		c0,0-51.2-4.9-69.2,49.2c-4.6-11.5-8.9-28.2-8.9-28.2s-26.6,23.3-14.1,62c-30.5-11.2-74.2-26.6-75.8-26.9c-2.3-0.3-3,0.7-3,0.7
		s-0.7,1,1.3,2.6c3.6,3,72.5,53.8,87.6,63.7c-3.3,11.8-3.3,17.4,0,23c4.6,7.5,4.9,11.5,4.3,17.1c-0.7,5.6-6.6,53.8-7.9,59.7
		c-1.3,5.9-15.1,26.9-14.4,33.1c0.7,6.2,9.2,32.8,16.7,35.8c5.6,2,19.4,6.2,28.5,6.2c3.3,0,6.2-0.7,7.5-2c5.6-4.9,7.2-5.9,11.2-5.9
		c0.3,0,0.7,0,1,0c1.6,0,3.6,0.3,5.9,0.3c5.2,0,12.1-1,17.1-5.6c7.2-7.2,19.7-17.1,23.6-21.7c4.9-6.2,7.5-14.8,6.2-23.3
		c-1-7.9,3.3-14.8,8.2-21.7c6.2-8.2,17.7-23,17.7-23c22.6,17.1,36.8,43,36.8,71.9c0,51.2-44.6,92.5-99.7,92.5c-8.5,0-16.7-1-24.9-3
		c25.3,8.9,46.6,11.8,64,11.8c37.1,0,56.8-13.5,56.8-13.5s-6.9,8.9-18,19c0.3,0,0.3,0,0.3,0c61.4-8.5,91.2-59.1,91.2-59.1
		s-2.3,16.4-5.2,27.6c81.7-61.4,67.9-138.1,67.6-140.8c0.7,1,8.9,10.8,13.1,16.1C494.4,195.8,383.9,152.1,383.9,152.1z M258.2,368
		c-1.3,1.6-6.9,6.6-10.8,10.2c-3.9,3.6-8.2,7.2-11.5,10.5c-1.3,1.3-3.9,2-7.9,2c-1.3,0-2.6,0-3.6,0c-0.7,0-1.3,0-2,0s-1,0-1.3,0
		c-1,0-2,0-3,0c4.9-6.6,19.4-21.7,24.3-24.9c5.9-3.9,8.9-7.9,5.2-14.8c-3.6-6.9-13.1-5.3-13.1-5.3s5.6-2.3,10.5-2.3
		c-6.2-1.6-14.1,0-17.7,3.6c-3.9,3.6-3.3,16.4-4.9,24.6c-1.6,8.5-7.2,12.8-15.8,20.7c-4.6,4.3-7.9,5.6-10.5,5.6
		c-5.6-1-12.1-2.6-16.7-4.3c-3.3-4.3-8.2-18.4-9.5-24.3c1-3.3,4.9-10.2,6.9-14.1c3.9-7.5,6.2-11.8,6.9-15.8c1.3-5.6,5.6-40,7.2-54.5
		c4.3,5.6,10.2,14.8,8.9,20.7c9.5-13.5,2.6-26.6-0.7-31.8c-3-5.2-6.9-15.8-3.6-26.9c3.3-11.2,15.1-42,15.1-42s3.9,6.9,9.5,5.6
		s50.5-68.9,50.5-68.9s12.1,26.6-0.7,45.9c-13.1,19.4-25.9,23-25.9,23s18,3.3,34.8-8.9c6.9,16.1,13.5,32.8,13.8,35.1
		c-1,2.3-14.1,33.8-15.4,35.8c-0.7,0.7-5.2,2-8.5,2.6c-5.6,1.6-8.9,2.6-10.2,3.6c-2.3,2-12.8,30.8-17.7,45
		c-5.9,1.6-11.8,4.9-16.1,11.5c2.3-1.6,9.5-2.6,14.8-3.3c4.6-0.3,18.7,7.2,22.3,21.3c0,0.3,0,0.3,0,0.7
		C262.5,359.2,260.8,364.1,258.2,368z M227.4,372c3-4.3,2.6-11.5,3-13.8s1-6.6,3.6-7.2c2.6-0.7,8.9,0.3,8.9,4.9
		c0,4.3-4.6,5.2-7.9,8.2C232.6,366.4,228,371.3,227.4,372z M358.3,309.3c3.3-16.7,3.6-31.2,2.6-43c12.8,17.1,20.7,37.7,23,59.1
		c0.3,2.6,3,5.2,5.6,7.9c2.3,2,4.9,4.6,4.9,6.2c0,7.5-0.7,15.1-2,22.6c-0.3,1-3.3,2.6-5.6,3.9c-3.3,1.6-6.2,3.3-6.9,5.9
		c-7.2,25.3-22.6,47.6-43.3,63.3C367.1,403.5,381.9,351,358.3,309.3z M337.6,438.3c21.3-16.4,37.7-39.4,45-65.3
		c0.3-1,3.3-2.6,5.2-3.9c3.3-1.6,6.6-3.6,7.2-6.2c1.3-7.5,2-15.4,2-23.3c0-3-3-5.9-5.9-8.9c-1.6-2-4.3-4.3-4.3-5.9
		c-2.6-24-12.1-46.6-26.9-65.3c-6.6-39.4-32.8-51.5-33.5-51.8c0.7,1,17.7,25.6,5.9,54.5c-12.1,29.2-43.3,24.6-45.9,24.9
		c-2.6,0-12.8,13.1-25.6,37.4c-1.6-0.7-8.5-2.3-16.4-1c5.9-16.4,14.8-39.7,16.4-41.7c0.7-0.7,5.6-2,8.9-3c6.2-1.6,9.2-2.6,10.2-3.9
		c0.7-1,3.9-8.5,7.2-16.4c3,0,10.5-0.7,11.2-1c0.7-0.7,6.9-16.7,6.9-18.7c0-1.6-12.8-33.5-17.7-45.6c2.3-2.6,4.6-5.9,6.9-9.5
		c67.3,7.2,119.8,64.3,119.8,133.5C414.1,370.3,382.9,416.6,337.6,438.3z"/>
	<path class="st0" d="M250.3,261.1c6.2-7.2,3-20.7-8.5-23c3-6.9,7.2-20.7,7.2-20.7s-33.5,52.5-36.4,53.5c-3,1-5.9-10.5-5.9-10.5
		c-6.2,24,10.5,27.2,12.5,19.7C228.3,277.8,244.1,268,250.3,261.1z"/>
	<path class="st3" d="M221.8,273.9l17.1-29.2c0,0,9.8,4.9,4.9,12.8C237.5,266.6,221.8,273.9,221.8,273.9z"/>
	<path class="st4" d="M432.8,409.1c-4.9,6.6-10.5,13.5-17.1,20c42.3-81.4,2-155.9,0.3-158.8c3,3,5.9,6.2,8.5,9.2
		C457,315.5,461,369.7,432.8,409.1z"/>
	<path class="st4" d="M472.1,304.4c-14.8-39.7-35.8-73.5-82-104c-44.6-29.5-92.5-27.2-95.2-26.9c-0.3,0-0.7,0-0.7,0
		c1.6-0.7,3.3-1,4.9-1.3c10.2-3.3,23.3-5.9,36.4-7.5c34.8-4.9,69.9,6.9,93.8,32.2c0.3,0.3,0.3,0.3,0.7,0.7
		C457.4,226.3,471.5,262.4,472.1,304.4z"/>
	<path class="st4" d="M379.6,142c-48.9-9.2-80.4-4.6-103,3.9c-0.7-2.6-3-7.9-4.9-12.1c-6.9,8.2-14.1,18-18.7,24.3
		c-12.5,8.5-17.7,16.7-17.7,16.7c7.2-24.6,28.2-43,53.8-47.6c7.2-1.3,15.1-2,23.6-2C335.3,125.6,357.9,131.1,379.6,142z"/>
	<path class="st4" d="M198.8,205c-38.4-1.3-25.6-45.9-24.9-48.6C173.9,156.7,176.5,191.5,198.8,205z"/>
	<path class="st4" d="M236.5,124.6c-29.5,17.7-23.6,60-23.6,60C184.7,141.6,234.2,125.6,236.5,124.6z"/>
	<path class="st1" d="M188,216.8c2,1.6,3.9,4.6,1.6,8.9c-1.3,2.3-3.3,2-6.2,0.7c-3.9-2-27.6-15.8-48.9-29.9
		c24.3,8.5,48.9,17.7,52.8,19.7C187.3,216.1,187.7,216.4,188,216.8z"/>
</g>
</svg>
